{
    "asset" : {
        "generator" : "Khronos glTF Blender I/O v3.3.32",
        "version" : "2.0"
    },
    "scene" : 0,
    "scenes" : [
        {
            "name" : "Scene",
            "nodes" : [
                0
            ]
        }
    ],
    "nodes" : [
        {
            "mesh" : 0,
            "name" : "Ghost",
            "rotation" : [
                0,
                0.9522746801376343,
                0,
                0.3052424490451813
            ]
        }
    ],
    "materials" : [
        {
            "doubleSided" : true,
            "name" : "Eye-White",
            "pbrMetallicRoughness" : {
                "baseColorFactor" : [
                    0.0036612695548683405,
                    0.0035665484610944986,
                    0.003935542423278093,
                    1
                ],
                "metallicFactor" : 0,
                "roughnessFactor" : 0.5
            }
        },
        {
            "doubleSided" : true,
            "name" : "Material.001",
            "pbrMetallicRoughness" : {
                "baseColorFactor" : [
                    0.800000011920929,
                    0.800000011920929,
                    0.800000011920929,
                    1
                ],
                "metallicFactor" : 0,
                "roughnessFactor" : 0.4000000059604645
            }
        },
        {
            "doubleSided" : true,
            "name" : "Body",
            "pbrMetallicRoughness" : {
                "baseColorFactor" : [
                    0.6559237837791443,
                    0.6559237837791443,
                    0.6559237837791443,
                    1
                ],
                "metallicFactor" : 0,
                "roughnessFactor" : 0.5
            }
        },
        {
            "doubleSided" : true,
            "name" : "Hat",
            "pbrMetallicRoughness" : {
                "baseColorFactor" : [
                    0.37333133816719055,
                    0.08650211244821548,
                    0.8000000715255737,
                    1
                ],
                "metallicFactor" : 0,
                "roughnessFactor" : 0.5
            }
        },
        {
            "doubleSided" : true,
            "name" : "Material.002",
            "pbrMetallicRoughness" : {
                "baseColorFactor" : [
                    0.800000011920929,
                    0.800000011920929,
                    0.800000011920929,
                    1
                ],
                "metallicFactor" : 0,
                "roughnessFactor" : 0.5
            }
        }
    ],
    "meshes" : [
        {
            "name" : "Sphere",
            "primitives" : [
                {
                    "attributes" : {
                        "POSITION" : 0,
                        "NORMAL" : 1,
                        "TEXCOORD_0" : 2
                    },
                    "indices" : 3,
                    "material" : 0
                },
                {
                    "attributes" : {
                        "POSITION" : 4,
                        "NORMAL" : 5,
                        "TEXCOORD_0" : 6
                    },
                    "indices" : 7,
                    "material" : 1
                },
                {
                    "attributes" : {
                        "POSITION" : 8,
                        "NORMAL" : 9,
                        "TEXCOORD_0" : 10
                    },
                    "indices" : 11,
                    "material" : 2
                },
                {
                    "attributes" : {
                        "POSITION" : 12,
                        "NORMAL" : 13,
                        "TEXCOORD_0" : 14
                    },
                    "indices" : 15,
                    "material" : 3
                },
                {
                    "attributes" : {
                        "POSITION" : 16,
                        "NORMAL" : 17,
                        "TEXCOORD_0" : 18
                    },
                    "indices" : 19,
                    "material" : 4
                }
            ]
        }
    ],
    "accessors" : [
        {
            "bufferView" : 0,
            "componentType" : 5126,
            "count" : 1118,
            "max" : [
                0.38480064272880554,
                0.3372795283794403,
                -0.7299931645393372
            ],
            "min" : [
                -0.38480064272880554,
                -0.098385751247406,
                -0.8513422608375549
            ],
            "type" : "VEC3"
        },
        {
            "bufferView" : 1,
            "componentType" : 5126,
            "count" : 1118,
            "type" : "VEC3"
        },
        {
            "bufferView" : 2,
            "componentType" : 5126,
            "count" : 1118,
            "type" : "VEC2"
        },
        {
            "bufferView" : 3,
            "componentType" : 5123,
            "count" : 5760,
            "type" : "SCALAR"
        },
        {
            "bufferView" : 4,
            "componentType" : 5126,
            "count" : 1118,
            "max" : [
                0.25810226798057556,
                0.2515631914138794,
                -0.7986630201339722
            ],
            "min" : [
                -0.3272508382797241,
                0.157173290848732,
                -0.8571023941040039
            ],
            "type" : "VEC3"
        },
        {
            "bufferView" : 5,
            "componentType" : 5126,
            "count" : 1118,
            "type" : "VEC3"
        },
        {
            "bufferView" : 6,
            "componentType" : 5126,
            "count" : 1118,
            "type" : "VEC2"
        },
        {
            "bufferView" : 7,
            "componentType" : 5123,
            "count" : 5760,
            "type" : "SCALAR"
        },
        {
            "bufferView" : 8,
            "componentType" : 5126,
            "count" : 44286,
            "max" : [
                1.1178383827209473,
                0.829904317855835,
                0.8346918821334839
            ],
            "min" : [
                -1.1178383827209473,
                -1.1829378604888916,
                -0.8346918821334839
            ],
            "type" : "VEC3"
        },
        {
            "bufferView" : 9,
            "componentType" : 5126,
            "count" : 44286,
            "type" : "VEC3"
        },
        {
            "bufferView" : 10,
            "componentType" : 5126,
            "count" : 44286,
            "type" : "VEC2"
        },
        {
            "bufferView" : 11,
            "componentType" : 5123,
            "count" : 264186,
            "type" : "SCALAR"
        },
        {
            "bufferView" : 12,
            "componentType" : 5126,
            "count" : 6366,
            "max" : [
                0.9764291048049927,
                2.0854694843292236,
                0.9764291048049927
            ],
            "min" : [
                -0.9764291048049927,
                0.36214137077331543,
                -0.9764291644096375
            ],
            "type" : "VEC3"
        },
        {
            "bufferView" : 13,
            "componentType" : 5126,
            "count" : 6366,
            "type" : "VEC3"
        },
        {
            "bufferView" : 14,
            "componentType" : 5126,
            "count" : 6366,
            "type" : "VEC2"
        },
        {
            "bufferView" : 15,
            "componentType" : 5123,
            "count" : 36540,
            "type" : "SCALAR"
        },
        {
            "bufferView" : 16,
            "componentType" : 5126,
            "count" : 86,
            "max" : [
                0.4910467863082886,
                0.3691635727882385,
                0.521796703338623
            ],
            "min" : [
                -0.4910467863082886,
                0.35265934467315674,
                -0.4910467863082886
            ],
            "type" : "VEC3"
        },
        {
            "bufferView" : 17,
            "componentType" : 5126,
            "count" : 86,
            "type" : "VEC3"
        },
        {
            "bufferView" : 18,
            "componentType" : 5126,
            "count" : 86,
            "type" : "VEC2"
        },
        {
            "bufferView" : 19,
            "componentType" : 5123,
            "count" : 330,
            "type" : "SCALAR"
        }
    ],
    "bufferViews" : [
        {
            "buffer" : 0,
            "byteLength" : 13416,
            "byteOffset" : 0,
            "target" : 34962
        },
        {
            "buffer" : 0,
            "byteLength" : 13416,
            "byteOffset" : 13416,
            "target" : 34962
        },
        {
            "buffer" : 0,
            "byteLength" : 8944,
            "byteOffset" : 26832,
            "target" : 34962
        },
        {
            "buffer" : 0,
            "byteLength" : 11520,
            "byteOffset" : 35776,
            "target" : 34963
        },
        {
            "buffer" : 0,
            "byteLength" : 13416,
            "byteOffset" : 47296,
            "target" : 34962
        },
        {
            "buffer" : 0,
            "byteLength" : 13416,
            "byteOffset" : 60712,
            "target" : 34962
        },
        {
            "buffer" : 0,
            "byteLength" : 8944,
            "byteOffset" : 74128,
            "target" : 34962
        },
        {
            "buffer" : 0,
            "byteLength" : 11520,
            "byteOffset" : 83072,
            "target" : 34963
        },
        {
            "buffer" : 0,
            "byteLength" : 531432,
            "byteOffset" : 94592,
            "target" : 34962
        },
        {
            "buffer" : 0,
            "byteLength" : 531432,
            "byteOffset" : 626024,
            "target" : 34962
        },
        {
            "buffer" : 0,
            "byteLength" : 354288,
            "byteOffset" : 1157456,
            "target" : 34962
        },
        {
            "buffer" : 0,
            "byteLength" : 528372,
            "byteOffset" : 1511744,
            "target" : 34963
        },
        {
            "buffer" : 0,
            "byteLength" : 76392,
            "byteOffset" : 2040116,
            "target" : 34962
        },
        {
            "buffer" : 0,
            "byteLength" : 76392,
            "byteOffset" : 2116508,
            "target" : 34962
        },
        {
            "buffer" : 0,
            "byteLength" : 50928,
            "byteOffset" : 2192900,
            "target" : 34962
        },
        {
            "buffer" : 0,
            "byteLength" : 73080,
            "byteOffset" : 2243828,
            "target" : 34963
        },
        {
            "buffer" : 0,
            "byteLength" : 1032,
            "byteOffset" : 2316908,
            "target" : 34962
        },
        {
            "buffer" : 0,
            "byteLength" : 1032,
            "byteOffset" : 2317940,
            "target" : 34962
        },
        {
            "buffer" : 0,
            "byteLength" : 688,
            "byteOffset" : 2318972,
            "target" : 34962
        },
        {
            "buffer" : 0,
            "byteLength" : 660,
            "byteOffset" : 2319660,
            "target" : 34963
        }
    ],
    "buffers" : [
        {
            "byteLength" : 2320320,
            "uri" : "data:application/octet-stream;base64,"
        }
    ]
}
